# xmcd
#
# Track frame offsets:
#	150
#	12511
#	28798
#
# Disc length: 607 seconds
#
# Revision: 0
# Processed by: cddbd v1.5.2PL0 Copyright (c) Steve Scherf et al.
# Submitted via: EasyCDDAExtractor 11.0.0.1
#
DISCID=1d025d03
DTITLE=ΛΙΒΙΕΡΑΤΟΣ ΛΑΜΠΗΣ - ΜΩΡΟ ΜΟΥ ΛΑΜΠΕΙΣ
DYEAR=1998
DGENRE=POP
TTITLE0=Λιβιεράτος Λάμπης_01 Μωρό μου
TTITLE1=Λιβιεράτος Λάμπης_02 Αλήτισσα βροχή
TTITLE2=Λιβιεράτος Λάμπης_03 Όπου και άν πάς
EXTD=
EXTT0=
EXTT1=
EXTT2=
PLAYORDER=
